<?xml version="1.0" encoding="utf-8"?>
<!-- Generator: Adobe Illustrator 19.2.1, SVG Export Plug-In . SVG Version: 6.00 Build 0)  -->
<svg version="1.1" id="layer" xmlns="http://www.w3.org/2000/svg" xmlns:xlink="http://www.w3.org/1999/xlink" x="0px" y="0px"
	 viewBox="0 0 652 652" style="enable-background:new 0 0 652 652;" xml:space="preserve">
<style type="text/css">
	.st0{fill:#00694A;}
	.st1{fill:#FFFFFF;}
</style>
<polygon class="st0" points="334.2,293.4 326.9,293.4 326.9,313.8 323.9,313.8 323.9,293.4 316.5,293.4 316.5,290.9 334.2,290.9 "/>
<g>
	<path class="st0" d="M340.8,298.8c1.3-1.6,3-2.4,5-2.4c3.6,0,5.4,2,5.4,6.1v11.2h-2.9v-11.3c0-1.2-0.3-2.1-0.8-2.7
		c-0.6-0.6-1.4-0.9-2.6-0.9c-0.9,0-1.8,0.2-2.5,0.8c-0.7,0.5-1.3,1.2-1.7,2v12.1h-2.9v-24.2h2.9V298.8z"/>
	<path class="st0" d="M363.2,314.1c-2.3,0-4.2-0.8-5.6-2.3c-1.4-1.5-2.2-3.5-2.2-6.1v-0.5c0-1.7,0.3-3.2,1-4.5
		c0.6-1.3,1.5-2.4,2.7-3.1s2.4-1.1,3.8-1.1c2.2,0,3.9,0.7,5.2,2.2c1.2,1.5,1.8,3.5,1.8,6.3v1.2h-11.5c0,1.7,0.5,3,1.5,4.1
		c0.9,1,2.1,1.6,3.6,1.6c1,0,1.9-0.2,2.6-0.6c0.7-0.4,1.3-1,1.9-1.7l1.8,1.4C368.2,313,366.1,314.1,363.2,314.1 M362.9,298.8
		c-1.2,0-2.2,0.4-3,1.3c-0.8,0.9-1.3,2.1-1.5,3.6h8.5v-0.2c-0.1-1.5-0.5-2.6-1.2-3.4C365,299.2,364.1,298.8,362.9,298.8"/>
	<path class="st0" d="M382.9,313.8v-22.9h7.5c2.5,0,4.4,0.5,5.6,1.5c1.3,1,1.9,2.5,1.9,4.6c0,1.1-0.3,2-0.9,2.8
		c-0.6,0.8-1.4,1.5-2.5,1.9c1.2,0.3,2.2,1,2.9,2c0.7,1,1.1,2.1,1.1,3.5c0,2.1-0.7,3.7-2,4.8c-1.3,1.2-3.2,1.8-5.6,1.8H382.9z
		 M386,300.6h4.6c1.3,0,2.4-0.3,3.2-1c0.8-0.7,1.2-1.6,1.2-2.7c0-1.3-0.4-2.2-1.1-2.7c-0.7-0.6-1.9-0.9-3.3-0.9H386V300.6z
		 M386,303.1v8.2h5c1.4,0,2.5-0.4,3.3-1.1c0.8-0.7,1.2-1.7,1.2-3c0-2.8-1.5-4.1-4.5-4.1H386z"/>
	<path class="st0" d="M413.6,312.1c-1.1,1.3-2.8,2-5,2c-1.8,0-3.2-0.5-4.1-1.6c-1-1.1-1.4-2.6-1.4-4.7v-11.1h2.9v11
		c0,2.6,1,3.9,3.1,3.9c2.2,0,3.7-0.8,4.4-2.5v-12.4h2.9v17h-2.8L413.6,312.1z"/>
	<path class="st0" d="M431.2,309.3c0-0.8-0.3-1.4-0.9-1.8c-0.6-0.4-1.6-0.8-3.1-1.1c-1.5-0.3-2.6-0.7-3.5-1.1
		c-0.9-0.4-1.5-1-1.9-1.6c-0.4-0.6-0.6-1.3-0.6-2.2c0-1.4,0.6-2.6,1.8-3.5c1.2-1,2.7-1.4,4.5-1.4c1.9,0,3.5,0.5,4.7,1.5
		c1.2,1,1.8,2.3,1.8,3.8H431c0-0.8-0.3-1.5-1-2.1c-0.7-0.6-1.5-0.9-2.6-0.9c-1.1,0-1.9,0.2-2.5,0.7c-0.6,0.5-0.9,1.1-0.9,1.8
		c0,0.7,0.3,1.2,0.8,1.6c0.6,0.4,1.6,0.7,3,1c1.4,0.3,2.6,0.7,3.5,1.2c0.9,0.4,1.6,1,2,1.6c0.4,0.6,0.7,1.4,0.7,2.3
		c0,1.5-0.6,2.7-1.8,3.7c-1.2,0.9-2.8,1.4-4.7,1.4c-1.4,0-2.6-0.2-3.6-0.7c-1-0.5-1.9-1.2-2.5-2c-0.6-0.9-0.9-1.8-0.9-2.8h2.9
		c0.1,1,0.4,1.7,1.2,2.3c0.7,0.6,1.7,0.9,2.9,0.9c1.1,0,2-0.2,2.6-0.7C430.8,310.6,431.2,310,431.2,309.3"/>
	<path class="st0" d="M438.2,292.3c0-0.5,0.1-0.9,0.4-1.2c0.3-0.3,0.7-0.5,1.3-0.5c0.6,0,1,0.2,1.3,0.5c0.3,0.3,0.4,0.7,0.4,1.2
		s-0.1,0.9-0.4,1.2c-0.3,0.3-0.7,0.5-1.3,0.5c-0.6,0-1-0.2-1.3-0.5C438.4,293.1,438.2,292.7,438.2,292.3 M441.4,313.8h-2.9v-17h2.9
		V313.8z"/>
	<path class="st0" d="M449.2,296.8l0.1,2.1c1.3-1.6,3-2.5,5.1-2.5c3.6,0,5.4,2,5.4,6.1v11.2h-2.9v-11.3c0-1.2-0.3-2.1-0.8-2.7
		c-0.6-0.6-1.4-0.9-2.6-0.9c-0.9,0-1.8,0.2-2.5,0.8c-0.7,0.5-1.3,1.2-1.7,2v12.1h-2.9v-17H449.2z"/>
	<path class="st0" d="M471.8,314.1c-2.3,0-4.2-0.8-5.6-2.3c-1.4-1.5-2.2-3.5-2.2-6.1v-0.5c0-1.7,0.3-3.2,1-4.5
		c0.6-1.3,1.5-2.4,2.7-3.1c1.2-0.7,2.4-1.1,3.8-1.1c2.2,0,3.9,0.7,5.2,2.2c1.2,1.5,1.8,3.5,1.8,6.3v1.2h-11.5c0,1.7,0.5,3,1.5,4.1
		c0.9,1,2.1,1.6,3.6,1.6c1,0,1.9-0.2,2.6-0.6c0.7-0.4,1.3-1,1.9-1.7l1.8,1.4C476.8,313,474.7,314.1,471.8,314.1 M471.5,298.8
		c-1.2,0-2.2,0.4-3,1.3c-0.8,0.9-1.3,2.1-1.5,3.6h8.5v-0.2c-0.1-1.5-0.5-2.6-1.2-3.4C473.6,299.2,472.7,298.8,471.5,298.8"/>
	<path class="st0" d="M492.2,309.3c0-0.8-0.3-1.4-0.9-1.8c-0.6-0.4-1.6-0.8-3.1-1.1c-1.5-0.3-2.6-0.7-3.5-1.1
		c-0.9-0.4-1.5-1-1.9-1.6c-0.4-0.6-0.6-1.3-0.6-2.2c0-1.4,0.6-2.6,1.8-3.5c1.2-1,2.7-1.4,4.5-1.4c1.9,0,3.5,0.5,4.7,1.5
		c1.2,1,1.8,2.3,1.8,3.8H492c0-0.8-0.3-1.5-1-2.1c-0.7-0.6-1.5-0.9-2.6-0.9c-1.1,0-1.9,0.2-2.5,0.7c-0.6,0.5-0.9,1.1-0.9,1.8
		c0,0.7,0.3,1.2,0.8,1.6c0.6,0.4,1.6,0.7,3,1c1.4,0.3,2.6,0.7,3.5,1.2c0.9,0.4,1.6,1,2,1.6c0.4,0.6,0.7,1.4,0.7,2.3
		c0,1.5-0.6,2.7-1.8,3.7c-1.2,0.9-2.8,1.4-4.7,1.4c-1.4,0-2.6-0.2-3.6-0.7c-1-0.5-1.9-1.2-2.5-2c-0.6-0.9-0.9-1.8-0.9-2.8h2.9
		c0.1,1,0.4,1.7,1.2,2.3c0.7,0.6,1.7,0.9,2.9,0.9c1.1,0,2-0.2,2.6-0.7C491.8,310.6,492.2,310,492.2,309.3"/>
	<path class="st0" d="M509.2,309.3c0-0.8-0.3-1.4-0.9-1.8c-0.6-0.4-1.6-0.8-3.1-1.1c-1.5-0.3-2.6-0.7-3.5-1.1
		c-0.9-0.4-1.5-1-1.9-1.6c-0.4-0.6-0.6-1.3-0.6-2.2c0-1.4,0.6-2.6,1.8-3.5c1.2-1,2.7-1.4,4.5-1.4c1.9,0,3.5,0.5,4.7,1.5
		c1.2,1,1.8,2.3,1.8,3.8H509c0-0.8-0.3-1.5-1-2.1c-0.7-0.6-1.5-0.9-2.6-0.9c-1.1,0-1.9,0.2-2.5,0.7c-0.6,0.5-0.9,1.1-0.9,1.8
		c0,0.7,0.3,1.2,0.8,1.6c0.6,0.4,1.6,0.7,3,1c1.4,0.3,2.6,0.7,3.5,1.2c0.9,0.4,1.6,1,2,1.6c0.4,0.6,0.7,1.4,0.7,2.3
		c0,1.5-0.6,2.7-1.8,3.7c-1.2,0.9-2.8,1.4-4.7,1.4c-1.4,0-2.6-0.2-3.6-0.7c-1-0.5-1.9-1.2-2.5-2c-0.6-0.9-0.9-1.8-0.9-2.8h2.9
		c0.1,1,0.4,1.7,1.2,2.3c0.7,0.6,1.7,0.9,2.9,0.9c1.1,0,2-0.2,2.6-0.7C508.9,310.6,509.2,310,509.2,309.3"/>
	<path class="st0" d="M532.4,303.6c-2.6-0.7-4.5-1.7-5.7-2.7c-1.2-1.1-1.8-2.4-1.8-4c0-1.8,0.7-3.3,2.2-4.5c1.4-1.2,3.3-1.8,5.6-1.8
		c1.6,0,3,0.3,4.2,0.9c1.2,0.6,2.2,1.4,2.9,2.5c0.7,1.1,1,2.2,1,3.5h-3c0-1.4-0.4-2.5-1.3-3.3c-0.9-0.8-2.1-1.2-3.7-1.2
		c-1.5,0-2.7,0.3-3.5,1c-0.8,0.7-1.2,1.6-1.2,2.7c0,0.9,0.4,1.7,1.2,2.4c0.8,0.6,2.1,1.2,4,1.8c1.9,0.5,3.4,1.1,4.5,1.8
		c1.1,0.6,1.9,1.4,2.4,2.3c0.5,0.9,0.8,1.9,0.8,3c0,1.9-0.7,3.3-2.2,4.5c-1.4,1.1-3.4,1.7-5.8,1.7c-1.6,0-3-0.3-4.4-0.9
		c-1.4-0.6-2.4-1.4-3.2-2.5c-0.7-1-1.1-2.2-1.1-3.6h3c0,1.4,0.5,2.5,1.5,3.3c1,0.8,2.4,1.2,4.1,1.2c1.6,0,2.8-0.3,3.7-1
		c0.9-0.7,1.3-1.5,1.3-2.7c0-1.1-0.4-2-1.2-2.6C535.9,304.8,534.4,304.2,532.4,303.6"/>
	<path class="st0" d="M551.9,311.7c1,0,1.9-0.3,2.7-0.9c0.8-0.6,1.2-1.4,1.3-2.4h2.8c-0.1,1-0.4,1.9-1,2.8c-0.6,0.9-1.4,1.6-2.5,2.1
		c-1,0.5-2.1,0.8-3.3,0.8c-2.3,0-4.2-0.8-5.5-2.3c-1.4-1.5-2.1-3.7-2.1-6.3v-0.5c0-1.7,0.3-3.1,0.9-4.4c0.6-1.3,1.5-2.3,2.6-3
		c1.1-0.7,2.5-1.1,4-1.1c1.9,0,3.5,0.6,4.8,1.7c1.3,1.1,1.9,2.6,2,4.5h-2.8c-0.1-1.1-0.5-2-1.2-2.7c-0.7-0.7-1.7-1.1-2.8-1.1
		c-1.5,0-2.6,0.5-3.4,1.6c-0.8,1.1-1.2,2.6-1.2,4.6v0.6c0,2,0.4,3.5,1.2,4.5C549.3,311.2,550.4,311.7,551.9,311.7"/>
	<path class="st0" d="M565.6,298.8c1.3-1.6,3-2.4,5-2.4c3.6,0,5.4,2,5.4,6.1v11.2h-2.9v-11.3c0-1.2-0.3-2.1-0.8-2.7
		c-0.6-0.6-1.4-0.9-2.6-0.9c-0.9,0-1.8,0.2-2.5,0.8c-0.7,0.5-1.3,1.2-1.7,2v12.1h-2.9v-24.2h2.9V298.8z"/>
	<path class="st0" d="M580.1,305.1c0-1.7,0.3-3.2,1-4.5c0.7-1.3,1.6-2.4,2.7-3.1c1.2-0.7,2.5-1.1,4-1.1c2.3,0,4.2,0.8,5.6,2.4
		c1.4,1.6,2.1,3.7,2.1,6.4v0.2c0,1.7-0.3,3.1-1,4.5c-0.6,1.3-1.5,2.3-2.7,3.1c-1.2,0.7-2.5,1.1-4.1,1.1c-2.3,0-4.2-0.8-5.6-2.4
		c-1.4-1.6-2.1-3.7-2.1-6.4V305.1z M583,305.5c0,1.9,0.4,3.4,1.3,4.5c0.9,1.1,2,1.7,3.5,1.7c1.5,0,2.7-0.6,3.5-1.7
		c0.9-1.2,1.3-2.8,1.3-4.9c0-1.9-0.4-3.4-1.3-4.5c-0.9-1.2-2.1-1.7-3.5-1.7c-1.4,0-2.6,0.6-3.5,1.7C583.5,301.7,583,303.3,583,305.5
		"/>
	<path class="st0" d="M599,305.1c0-1.7,0.3-3.2,1-4.5c0.7-1.3,1.6-2.4,2.7-3.1c1.2-0.7,2.5-1.1,4-1.1c2.3,0,4.2,0.8,5.6,2.4
		c1.4,1.6,2.1,3.7,2.1,6.4v0.2c0,1.7-0.3,3.1-1,4.5c-0.6,1.3-1.5,2.3-2.7,3.1c-1.2,0.7-2.5,1.1-4.1,1.1c-2.3,0-4.2-0.8-5.6-2.4
		c-1.4-1.6-2.1-3.7-2.1-6.4V305.1z M602,305.5c0,1.9,0.4,3.4,1.3,4.5c0.9,1.1,2,1.7,3.5,1.7c1.5,0,2.7-0.6,3.5-1.7
		c0.9-1.2,1.3-2.8,1.3-4.9c0-1.9-0.4-3.4-1.3-4.5c-0.9-1.2-2.1-1.7-3.5-1.7c-1.4,0-2.6,0.6-3.5,1.7C602.4,301.7,602,303.3,602,305.5
		"/>
	<rect x="618.9" y="289.6" class="st0" width="2.9" height="24.2"/>
	<path class="st0" d="M324.5,352.4v-14.8h-2.7v-2.2h2.7v-1.7c0-1.8,0.5-3.2,1.5-4.2c1-1,2.4-1.5,4.1-1.5c0.7,0,1.3,0.1,2,0.3
		l-0.2,2.3c-0.5-0.1-1-0.1-1.6-0.1c-0.9,0-1.7,0.3-2.2,0.8c-0.5,0.6-0.8,1.3-0.8,2.4v1.8h3.6v2.2h-3.6v14.8H324.5z"/>
	<path class="st0" d="M333.5,343.8c0-1.7,0.3-3.2,1-4.5c0.7-1.3,1.6-2.4,2.7-3.1c1.2-0.7,2.5-1.1,4-1.1c2.3,0,4.2,0.8,5.6,2.4
		c1.4,1.6,2.1,3.7,2.1,6.4v0.2c0,1.7-0.3,3.1-1,4.5c-0.6,1.3-1.5,2.3-2.7,3.1c-1.2,0.7-2.5,1.1-4.1,1.1c-2.3,0-4.2-0.8-5.6-2.4
		c-1.4-1.6-2.1-3.7-2.1-6.4V343.8z M336.4,344.1c0,1.9,0.4,3.4,1.3,4.5c0.9,1.1,2,1.7,3.5,1.7c1.5,0,2.7-0.6,3.5-1.7
		c0.9-1.2,1.3-2.8,1.3-4.9c0-1.9-0.4-3.4-1.3-4.5c-0.9-1.2-2.1-1.7-3.5-1.7c-1.4,0-2.6,0.6-3.5,1.7
		C336.8,340.3,336.4,342,336.4,344.1"/>
	<path class="st0" d="M361.4,338c-0.4-0.1-0.9-0.1-1.4-0.1c-1.9,0-3.2,0.8-3.9,2.4v12.1h-2.9v-17h2.8l0,2c1-1.5,2.3-2.3,4.1-2.3
		c0.6,0,1,0.1,1.3,0.2V338z"/>
	<path class="st0" d="M377.2,331.3v4.1h3.2v2.2h-3.2v10.6c0,0.7,0.1,1.2,0.4,1.5c0.3,0.3,0.8,0.5,1.4,0.5c0.3,0,0.8-0.1,1.4-0.2v2.3
		c-0.8,0.2-1.5,0.3-2.2,0.3c-1.3,0-2.3-0.4-2.9-1.2c-0.7-0.8-1-1.9-1-3.4v-10.5h-3.1v-2.2h3.1v-4.1H377.2z"/>
	<path class="st0" d="M388,337.5c1.3-1.6,3-2.4,5-2.4c3.6,0,5.4,2,5.4,6.1v11.2h-2.9v-11.3c0-1.2-0.3-2.1-0.8-2.7
		c-0.5-0.6-1.4-0.9-2.6-0.9c-0.9,0-1.8,0.2-2.5,0.8c-0.7,0.5-1.3,1.2-1.7,2v12.1h-2.9v-24.2h2.9V337.5z"/>
	<path class="st0" d="M410.4,352.7c-2.3,0-4.2-0.8-5.6-2.3c-1.4-1.5-2.2-3.5-2.2-6.1v-0.5c0-1.7,0.3-3.2,1-4.5
		c0.6-1.3,1.5-2.4,2.7-3.1c1.2-0.7,2.4-1.1,3.8-1.1c2.2,0,3.9,0.7,5.2,2.2c1.2,1.5,1.8,3.5,1.8,6.3v1.2h-11.5c0,1.7,0.5,3,1.5,4.1
		c0.9,1,2.1,1.5,3.6,1.5c1,0,1.9-0.2,2.6-0.6c0.7-0.4,1.3-1,1.9-1.7l1.8,1.4C415.4,351.6,413.3,352.7,410.4,352.7 M410.1,337.5
		c-1.2,0-2.2,0.4-3,1.3c-0.8,0.9-1.3,2.1-1.5,3.6h8.5v-0.2c-0.1-1.5-0.5-2.6-1.2-3.4C412.3,337.9,411.3,337.5,410.1,337.5"/>
	<polygon class="st0" points="435.1,345.2 435.5,348.2 436.2,345.5 440.7,329.5 443.3,329.5 447.7,345.5 448.3,348.3 448.8,345.2 
		452.4,329.5 455.4,329.5 449.8,352.4 447.1,352.4 442.4,335.7 442,334 441.6,335.7 436.7,352.4 434,352.4 428.5,329.5 431.5,329.5 
			"/>
	<path class="st0" d="M457.2,343.8c0-1.7,0.3-3.2,1-4.5c0.7-1.3,1.6-2.4,2.7-3.1c1.2-0.7,2.5-1.1,4-1.1c2.3,0,4.2,0.8,5.6,2.4
		c1.4,1.6,2.1,3.7,2.1,6.4v0.2c0,1.7-0.3,3.1-1,4.5c-0.6,1.3-1.5,2.3-2.7,3.1c-1.2,0.7-2.5,1.1-4.1,1.1c-2.3,0-4.2-0.8-5.6-2.4
		c-1.4-1.6-2.1-3.7-2.1-6.4V343.8z M460.2,344.1c0,1.9,0.4,3.4,1.3,4.5c0.9,1.1,2,1.7,3.5,1.7c1.5,0,2.7-0.6,3.5-1.7
		c0.9-1.2,1.3-2.8,1.3-4.9c0-1.9-0.4-3.4-1.3-4.5c-0.9-1.2-2.1-1.7-3.5-1.7c-1.4,0-2.6,0.6-3.5,1.7
		C460.6,340.3,460.2,342,460.2,344.1"/>
	<path class="st0" d="M485.1,338c-0.4-0.1-0.9-0.1-1.4-0.1c-1.9,0-3.2,0.8-3.9,2.4v12.1h-2.9v-17h2.8l0,2c1-1.5,2.3-2.3,4.1-2.3
		c0.6,0,1,0.1,1.3,0.2V338z"/>
	<rect x="488.6" y="328.3" class="st0" width="2.9" height="24.2"/>
	<path class="st0" d="M495.9,343.8c0-2.6,0.6-4.7,1.9-6.3c1.2-1.6,2.9-2.4,4.9-2.4c2,0,3.6,0.7,4.7,2v-8.9h2.9v24.2h-2.7l-0.1-1.8
		c-1.2,1.4-2.8,2.1-4.9,2.1c-2,0-3.6-0.8-4.8-2.4c-1.2-1.6-1.9-3.7-1.9-6.3V343.8z M498.8,344.1c0,1.9,0.4,3.4,1.2,4.5
		c0.8,1.1,1.9,1.6,3.3,1.6c1.8,0,3.2-0.8,4-2.5V340c-0.9-1.6-2.2-2.4-4-2.4c-1.4,0-2.5,0.6-3.3,1.7
		C499.2,340.3,498.8,341.9,498.8,344.1"/>
	<path class="st0" d="M515.7,334.8c0-1.1,0.3-2.2,0.8-3.1c0.5-1,1.2-1.7,2.2-2.3s1.9-0.8,3-0.8c1.1,0,2.1,0.3,3,0.8
		c0.9,0.6,1.6,1.3,2.2,2.3c0.5,1,0.8,2,0.8,3.1c0,1.1-0.3,2.2-0.8,3.2c-0.5,1-1.3,1.7-2.2,2.3c-0.9,0.6-1.9,0.8-3,0.8
		c-1.1,0-2.1-0.3-3-0.8c-0.9-0.6-1.6-1.3-2.2-2.3C516,337,515.7,335.9,515.7,334.8 M516.7,334.8c0,0.9,0.2,1.8,0.6,2.6
		c0.4,0.8,1,1.4,1.8,1.9s1.6,0.7,2.5,0.7c0.9,0,1.8-0.2,2.5-0.7c0.8-0.5,1.4-1.1,1.8-1.9c0.4-0.8,0.6-1.7,0.6-2.6
		c0-0.9-0.2-1.8-0.6-2.6c-0.4-0.8-1-1.4-1.8-1.9c-0.8-0.5-1.6-0.7-2.5-0.7c-0.9,0-1.7,0.2-2.5,0.7c-0.8,0.5-1.4,1.1-1.8,1.9
		C516.9,333,516.7,333.8,516.7,334.8 M520.4,335.4v2.8h-1.3v-7.1h2.4c0.9,0,1.5,0.2,2,0.6c0.5,0.4,0.7,0.9,0.7,1.6
		c0,0.6-0.3,1.1-0.9,1.4c0.3,0.2,0.5,0.4,0.7,0.7c0.1,0.3,0.2,0.7,0.2,1.2c0,0.5,0,0.8,0,1c0,0.2,0.1,0.3,0.1,0.5v0.1h-1.3
		c-0.1-0.2-0.1-0.7-0.1-1.6c0-0.4-0.1-0.7-0.3-0.9c-0.2-0.2-0.5-0.3-0.9-0.3H520.4z M520.4,334.3h1.1c0.4,0,0.8-0.1,1.1-0.3
		c0.3-0.2,0.4-0.4,0.4-0.7c0-0.4-0.1-0.7-0.3-0.8c-0.2-0.2-0.6-0.3-1.1-0.3h-1.2V334.3z"/>
	<path class="st0" d="M157.8,457.6c-75,0-136-61-136-136c0-75,61-136,136-136s136,61,136,136C293.8,396.5,232.8,457.6,157.8,457.6"
		/>
	<path class="st1" d="M178.7,319.5h-1.4c-0.2,1.3-0.5,4.8-2.6,7c-1.9,2-3.5,2.1-6,2.1h-7v-15.2h3.1c4.2,0,4.8,3.1,5.5,6.4h1.2v-13.8
		h-1.2c-0.7,3.4-1.1,6-6.1,6h-2.5v-14h6.8c6.4,0,7.1,4.6,7.9,7.4h1.4v-9h-26.3v1.5h5v30.6h-5v1.5h27.3V319.5z"/>
	<path class="st1" d="M122,328.6c1.8,0,3.2,2.4,9.2,2.4c3.2,0,6.2-1.2,8.5-3.5c2-2,3.2-4.7,3.2-7.5c0-12.3-19.4-8.7-19.4-17.4
		c0-3.8,3.4-5.6,6.6-5.6c5,0,7.5,4.1,8.3,8.5h1.4v-9h-1.3c-0.2,1-0.5,1.3-0.9,1.3c-1.1,0-3.4-2.2-7.5-2.2c-5.2,0-9.8,3.6-9.8,9.6
		c0,9.5,11.7,8.8,16.5,13c1.3,1.1,1.9,2.6,1.9,4.3c0,1.7-0.5,3.1-1.6,4.5c-1.5,1.8-3.7,2.6-5.9,2.6c-6.6,0-8.9-4.1-10.2-10.1h-1.5
		v10.7h1.3C120.9,328.8,121.6,328.6,122,328.6"/>
	<path class="st1" d="M152.9,355.5c2.8,2.8,3.4,7.1,3.7,9.2h1.8c0.3-2.1,1-6.4,3.7-9.2c3-3,6.5-3.2,9.3-3.2h85.8v-1.9h-85.8
		c-4.6,0-7.5,0.6-10.6,3.8c-2.6,2.6-3.1,5.8-3.3,6.7c-0.1-0.9-0.7-4.1-3.3-6.7c-3.1-3.2-6-3.8-10.6-3.8H57.3v1.9h86.3
		C146.5,352.2,149.9,352.4,152.9,355.5"/>
	<polygon class="st1" points="91.7,328.6 86.8,328.6 86.8,300.5 105.6,330.4 107.2,330.4 107.2,298 112.1,298 112.1,296.5 
		100.7,296.5 100.7,298 105.6,298 105.6,320.6 90.5,296.5 80.3,296.5 80.3,298 85.2,298 85.2,328.6 80.3,328.6 80.3,330.2 
		91.7,330.2 	"/>
	<polygon class="st1" points="72.4,328.6 67.5,328.6 67.5,298 72.4,298 72.4,296.5 57.3,296.5 57.3,298 62.2,298 62.2,328.6 
		57.3,328.6 57.3,330.2 72.4,330.2 	"/>
	<path class="st1" d="M251.8,300.2c-3.8-2.9-8-3.9-12.8-3.9c-2.8,0-5.6,0.1-8.3,0.1h-5.2v1.5h4.9v30.6h-4.9v1.5h4.5
		c4.9,0,7.3,0.2,9.2,0.2c5.6,0,9.8-0.8,13.9-5c2.7-2.7,4.8-6.7,4.8-11.8C258,308.2,255.9,303.3,251.8,300.2 M248,326
		c-2.3,2.4-5.2,2.9-8.8,2.9c-1.3,0-3.5-0.2-3.5-0.2v-30.8c0.5,0,2-0.1,3.4-0.1c3.7,0,7.6,1.2,10,4.5c2.2,3,3.1,7.5,3.1,11.4
		C252.1,319.4,250.2,323.7,248,326"/>
	<path class="st1" d="M215.4,328.6l-12-32.8h-1.7l-11.9,32.8h-4v1.5h10.4v-1.5h-4.6l3.6-10.2H206l3.7,10.2H205v1.5h14.4v-1.5H215.4z
		 M195.6,316.9l4.9-13.4l4.9,13.4H195.6z"/>
</g>
</svg>
